Coordinates
version=1
nRows=8
nColumns=40
inDegrees=yes

Units are S.I. units (second, meters, Newtons, ...)
Angles are in degrees.

endheader
time	pelvis_tilt	pelvis_list	pelvis_rotation	pelvis_tx	pelvis_ty	pelvis_tz	hip_flexion_r	hip_adduction_r	hip_rotation_r	knee_angle_r	knee_angle_r_beta	ankle_angle_r	subtalar_angle_r	mtp_angle_r	hip_flexion_l	hip_adduction_l	hip_rotation_l	knee_angle_l	knee_angle_l_beta	ankle_angle_l	subtalar_angle_l	mtp_angle_l	lumbar_extension	lumbar_bending	lumbar_rotation	arm_flex_r	arm_add_r	arm_rot_r	elbow_flex_r	pro_sup_r	wrist_flex_r	wrist_dev_r	arm_flex_l	arm_add_l	arm_rot_l	elbow_flex_l	pro_sup_l	wrist_flex_l	wrist_dev_l
     40.81250000	     -4.94604232	     -4.75252290	     -2.09902459	      0.87239253	      0.93599416	      0.43590962	     31.57808744	     -3.53463519	     -5.11131842	     59.09582362	     59.09582362	      0.90087124	    -16.42910403	      2.37953914	     11.75314071	     -4.04924861	     -7.23378994	     18.00487159	     18.00487159	     13.71255115	     -8.69858444	      1.44108029	    -10.50891840	      5.58202647	      2.07100467	     -4.99727029	    -13.91178994	     -6.42752535	     26.00681937	     46.48088394	      0.00000000	      0.00000000	     17.30537028	    -14.14733089	     -3.62402544	     50.85409831	     46.61965358	      0.00000000	      0.00000000
     40.82557143	     -5.02153495	     -4.77027030	     -2.39819750	      0.87155255	      0.93629993	      0.43604610	     31.89343547	     -3.36864568	     -5.39465971	     56.25660737	     56.25660737	      0.71310970	    -16.20293888	      1.05443869	     11.01328857	     -4.10219751	     -7.82614504	     17.28942165	     17.28942165	     13.48620440	     -8.21731586	      0.31470574	    -10.56813427	      5.59022520	      1.52527600	     -6.19370493	    -13.76573720	     -7.93105596	     25.80939206	     46.59773780	      0.00000000	      0.00000000	     16.93742209	    -14.27131861	     -6.30838954	     53.73166559	     46.89980235	      0.00000000	      0.00000000
     40.83864286	     -5.15898335	     -4.79400728	     -2.66570587	      0.87062192	      0.93641964	      0.43621112	     32.15706474	     -3.20090762	     -5.76205792	     53.14616942	     53.14616942	      0.97738911	    -15.59088914	      1.22331523	     10.40119337	     -4.11867625	     -8.15677270	     16.68916257	     16.68916257	     13.62624176	     -7.92119411	      0.27148407	    -10.46596740	      5.64887474	      1.43742571	     -7.52780629	    -13.82396635	     -8.03987692	     25.28748792	     46.61630821	      0.00000000	      0.00000000	     17.54159190	    -14.51665245	     -6.61185258	     54.44093302	     46.93958956	      0.00000000	      0.00000000
     40.85171429	     -5.18184745	     -4.75235445	     -2.96580184	      0.86973569	      0.93653557	      0.43657733	     32.13738257	     -3.05715205	     -6.09839385	     49.70746761	     49.70746761	      1.17149328	    -14.86921091	      1.02067633	      9.61222046	     -4.10423824	     -8.76630092	     16.00868806	     16.00868806	     13.76373877	     -7.24072422	     -0.03003221	    -10.57793899	      5.57192393	      1.65821256	     -8.97963418	    -13.80285795	     -8.35751029	     24.93306699	     46.64284545	      0.00000000	      0.00000000	     18.08599939	    -14.57230641	     -7.27434709	     55.92999176	     47.02002428	      0.00000000	      0.00000000
     40.86478571	     -5.44722257	     -4.75297166	     -3.19451439	      0.86865023	      0.93611518	      0.43701198	     32.24383076	     -2.87318789	     -6.59521072	     46.01307858	     46.01307858	      1.39982054	    -13.98010229	      1.19700351	      9.26032323	     -4.12820221	     -9.06435576	     15.60392481	     15.60392481	     13.92897612	     -6.95810482	     -0.19971491	    -10.34891018	      5.59241141	      1.45777055	    -10.11571171	    -13.79421668	     -8.49240628	     24.66395858	     46.65415310	      0.00000000	      0.00000000	     18.50848062	    -14.90873587	     -7.61012715	     56.64263799	     47.05990797	      0.00000000	      0.00000000
     40.87785714	     -5.44695155	     -4.73409809	     -3.43259866	      0.86784994	      0.93595583	      0.43752068	     31.84623805	     -2.71463077	     -7.19234350	     42.00329403	     42.00329403	      1.60217533	    -12.74379002	      1.08688625	      8.52660351	     -4.13908430	     -9.59201471	     15.08053663	     15.08053663	     14.14518719	     -6.32638050	     -0.56999243	    -10.43447619	      5.58001309	      1.54446794	    -11.29364394	    -13.84096356	     -8.75139562	     24.52078155	     46.66966577	      0.00000000	      0.00000000	     18.88447623	    -14.92585323	     -8.13515659	     57.98534119	     47.12361927	      0.00000000	      0.00000000
     40.89092857	     -5.60934500	     -4.69078964	     -3.63592080	      0.86698098	      0.93537031	      0.43819752	     31.50863743	     -2.52322685	     -7.83229023	     37.85551710	     37.85551710	      1.81923621	    -11.36629182	      1.06629818	      8.05070732	     -4.14212217	    -10.04363324	     14.67495839	     14.67495839	     14.32662220	     -5.79485490	     -0.93970965	    -10.32589066	      5.53838350	      1.50924610	    -12.33628142	    -13.80332061	     -8.98276016	     24.45158620	     46.68063265	      0.00000000	      0.00000000	     19.16975321	    -15.05272280	     -8.60122569	     59.13451984	     47.17855905	      0.00000000	      0.00000000
     40.90400000	     -5.68708294	     -4.56246085	     -3.86254292	      0.86625213	      0.93463844	      0.43905560	     30.88295116	     -2.37033036	     -8.52162236	     33.41841293	     33.41841293	      1.22611951	     -9.96227841	     -1.23486186	      7.48818997	     -4.11193977	    -10.85498944	     14.30422888	     14.30422888	     14.34430414	     -4.85618482	     -2.21152062	    -10.38380636	      5.35766205	      1.13255646	    -13.21479445	    -13.66000583	    -10.44327053	     25.14190418	     46.74918073	      0.00000000	      0.00000000	     18.62910811	    -15.20208253	    -10.45141487	     62.06944628	     47.36957235	      0.00000000	      0.00000000
